<svg viewBox="0 0 200 200" xmlns="http://www.w3.org/2000/svg">
  <defs>
    <linearGradient id="bodyGradient" x1="0%" y1="0%" x2="0%" y2="100%">
      <stop offset="0%" stop-color="#34D399"/>
      <stop offset="100%" stop-color="#059669"/>
    </linearGradient>
    <linearGradient id="plateGradient" x1="0%" y1="0%" x2="100%" y2="0%">
      <stop offset="0%" stop-color="#FBBF24"/>
      <stop offset="100%" stop-color="#D97706"/>
    </linearGradient>
  </defs>
  <ellipse cx="100" cy="173" rx="58" ry="14" fill="url(#plateGradient)"/>
  <ellipse cx="100" cy="171" rx="46" ry="9" fill="#FDE68A" opacity="0.6"/>
  <ellipse cx="75" cy="163" rx="9" ry="6" fill="#059669"/>
  <ellipse cx="125" cy="163" rx="9" ry="6" fill="#059669"/>
  <path d="M 100 48
           C 132 58 148 94 142 124
           C 137 154 118 168 100 168
           C 82 168 63 154 58 124
           C 52 94 68 58 100 48 Z"
        fill="url(#bodyGradient)"/>
  <path d="M 100 60 L 100 150" stroke="#047857" stroke-width="2" stroke-linecap="round" opacity="0.4"/>
  <path d="M 100 85 C 88 92 80 100 78 108" stroke="#047857" stroke-width="1.5" stroke-linecap="round" fill="none" opacity="0.35"/>
  <path d="M 100 85 C 112 92 120 100 122 108" stroke="#047857" stroke-width="1.5" stroke-linecap="round" fill="none" opacity="0.35"/>
  <ellipse cx="56" cy="120" rx="10" ry="7" fill="#34D399" transform="rotate(-20 56 120)"/>
  <ellipse cx="144" cy="120" rx="10" ry="7" fill="#34D399" transform="rotate(20 144 120)"/>
  <circle cx="84" cy="108" r="11" fill="#FFFFFF"/>
  <circle cx="116" cy="108" r="11" fill="#FFFFFF"/>
  <circle cx="86" cy="110" r="5" fill="#064E3B"/>
  <circle cx="114" cy="110" r="5" fill="#064E3B"/>
  <circle cx="88" cy="108" r="1.6" fill="#FFFFFF"/>
  <circle cx="116" cy="108" r="1.6" fill="#FFFFFF"/>
  <path d="M 86 128 Q 100 140 114 128" stroke="#064E3B" stroke-width="3" stroke-linecap="round" fill="none"/>
  <ellipse cx="70" cy="122" rx="6" ry="4" fill="#FBBF24" opacity="0.5"/>
  <ellipse cx="130" cy="122" rx="6" ry="4" fill="#FBBF24" opacity="0.5"/>
  <line x1="100" y1="48" x2="100" y2="26" stroke="#059669" stroke-width="3" stroke-linecap="round"/>
  <circle cx="100" cy="20" r="8" fill="#FBBF24"/>
  <path d="M 100 14 L 102 19 L 107 20 L 102 21 L 100 26 L 98 21 L 93 20 L 98 19 Z" fill="#FFFFFF"/>
</svg>